<svg xmlns="http://www.w3.org/2000/svg" xmlns:xlink="http://www.w3.org/1999/xlink" viewBox="0 0 45.743 41.63"><defs><style>.a,.c{fill:none;}.b{fill:rgba(0,0,0,0);}.b,.c{stroke:#fff;stroke-miterlimit:10;stroke-width:3px;}.c{stroke-linecap:round;}.d{filter:url(#e);}.e{filter:url(#c);}.f{filter:url(#a);}</style><filter id="a" x="11.029" y="9.001" width="24.896" height="24.896" filterUnits="userSpaceOnUse"><feOffset dy="1" input="SourceAlpha"/><feGaussianBlur stdDeviation="2" result="b"/><feFlood flood-opacity="0.161"/><feComposite operator="in" in2="b"/><feComposite in="SourceGraphic"/></filter><filter id="c" x="0" y="1.363" width="30.27" height="33.343" filterUnits="userSpaceOnUse"><feOffset dy="1" input="SourceAlpha"/><feGaussianBlur stdDeviation="2" result="d"/><feFlood flood-opacity="0.161"/><feComposite operator="in" in2="d"/><feComposite in="SourceGraphic"/></filter><filter id="e" x="15.472" y="8.295" width="30.271" height="33.335" filterUnits="userSpaceOnUse"><feOffset dy="1" input="SourceAlpha"/><feGaussianBlur stdDeviation="2" result="f"/><feFlood flood-opacity="0.161"/><feComposite operator="in" in2="f"/><feComposite in="SourceGraphic"/></filter></defs><g transform="translate(-288.314 -35)"><rect class="a" width="40" height="40" transform="translate(291 35)"/><g transform="translate(294.837 39.2)"><g class="f" transform="matrix(1, 0, 0, 1, -6.52, -4.2)"><circle class="b" cx="4.948" cy="4.948" r="4.948" transform="translate(18.53 15.5)"/></g><g transform="translate(1.014 0.8)"><g class="e" transform="matrix(1, 0, 0, 1, -7.54, -5)"><path class="c" d="M1.909,21.977C-3.342,2.085,16.248,3.7,16.248,3.7" transform="translate(6.52 4.23)"/></g><line class="c" x1="2.928" y1="2.827" transform="translate(12.81)"/><line class="c" y1="2.928" x2="2.928" transform="translate(12.81 2.827)"/></g><g transform="translate(15.945 10.595)"><g class="d" transform="matrix(1, 0, 0, 1, -22.47, -14.79)"><path class="c" d="M30.639,10.5C35.89,30.292,16.3,28.777,16.3,28.777" transform="translate(6.67 4.29)"/></g><line class="c" x2="2.827" y2="2.928" transform="translate(0 18.277)"/><line class="c" x1="2.827" y2="2.928" transform="translate(0 15.349)"/></g></g></g></svg>