<svg xmlns="http://www.w3.org/2000/svg" xmlns:xlink="http://www.w3.org/1999/xlink" viewBox="0 0 40.349 40.824"><defs><style>.a{fill:#fff;stroke:rgba(0,0,0,0.45);stroke-width:0.25px;}.b{fill:none;}.c{filter:url(#e);}.d{filter:url(#c);}.e{filter:url(#a);}</style><filter id="a" x="11.731" y="10.952" width="18.004" height="18.004" filterUnits="userSpaceOnUse"><feOffset input="SourceAlpha"/><feGaussianBlur stdDeviation="1" result="b"/><feFlood flood-opacity="0.161"/><feComposite operator="in" in2="b"/><feComposite in="SourceGraphic"/></filter><filter id="c" x="0" y="0" width="26.039" height="32.166" filterUnits="userSpaceOnUse"><feOffset input="SourceAlpha"/><feGaussianBlur stdDeviation="1" result="d"/><feFlood flood-opacity="0.161"/><feComposite operator="in" in2="d"/><feComposite in="SourceGraphic"/></filter><filter id="e" x="14.34" y="8.716" width="26.009" height="32.108" filterUnits="userSpaceOnUse"><feOffset input="SourceAlpha"/><feGaussianBlur stdDeviation="1" result="f"/><feFlood flood-opacity="0.161"/><feComposite operator="in" in2="f"/><feComposite in="SourceGraphic"/></filter></defs><g transform="translate(-239.861 -18.817)"><g transform="translate(242.975 22)"><g class="e" transform="matrix(1, 0, 0, 1, -3.11, -3.18)"><path class="a" d="M46.777,38a5.877,5.877,0,1,0,5.877,5.877A5.885,5.885,0,0,0,46.777,38Zm0,9.718a3.841,3.841,0,1,1,3.841-3.841A3.842,3.842,0,0,1,46.777,47.718Z" transform="translate(-26.04 -23.92)"/></g><g class="d" transform="matrix(1, 0, 0, 1, -3.11, -3.18)"><path class="a" d="M19.512,3.526h0L16.215.258h0a.865.865,0,0,0-1.233,0,.865.865,0,0,0,0,1.233c.029.029.057.057.086.057L16.5,2.981C11.141,3.153-3.91,5.361.993,24.712h0a1.3,1.3,0,0,0,.143.573h0a1.153,1.153,0,0,0,2.15-.573.942.942,0,0,0-.115-.487h0S-3.021,6.049,16.473,5.275L15.1,6.651a.4.4,0,0,1-.115.086A.872.872,0,0,0,16.215,7.97h0l3.3-3.211h0A.921.921,0,0,0,19.512,3.526Z" transform="translate(3.11 3.18)"/></g><g class="c" transform="matrix(1, 0, 0, 1, -3.11, -3.18)"><path class="a" d="M50.258,52.5h0l3.3,3.3h0a.872.872,0,1,0,1.233-1.233c-.029-.029-.057-.057-.086-.057l-1.433-1.433C58.629,52.9,73.68,50.7,68.777,31.347h0a1.305,1.305,0,0,0-.143-.573h0a1.153,1.153,0,0,0-2.15.573.942.942,0,0,0,.115.487h0s6.192,18.175-13.3,18.949l1.376-1.376a.4.4,0,0,1,.115-.086.872.872,0,1,0-1.233-1.233h0l-3.3,3.3h0A.732.732,0,0,0,50.258,52.5Z" transform="translate(-32.53 -18.36)"/></g></g><rect class="b" width="40" height="40" transform="translate(240 19)"/></g></svg>