<svg xmlns="http://www.w3.org/2000/svg" xmlns:xlink="http://www.w3.org/1999/xlink" viewBox="0 0 30 30"><defs><style>.a{fill:#fff;stroke:rgba(0,0,0,0.45);stroke-width:0.25px;}.b{fill:none;}.c{filter:url(#c);}.d{filter:url(#a);}</style><filter id="a" x="0.316" y="12.801" width="16.321" height="16.324" filterUnits="userSpaceOnUse"><feOffset input="SourceAlpha"/><feGaussianBlur stdDeviation="1" result="b"/><feFlood flood-opacity="0.161"/><feComposite operator="in" in2="b"/><feComposite in="SourceGraphic"/></filter><filter id="c" x="12.915" y="0.235" width="16.322" height="16.323" filterUnits="userSpaceOnUse"><feOffset input="SourceAlpha"/><feGaussianBlur stdDeviation="1" result="d"/><feFlood flood-opacity="0.161"/><feComposite operator="in" in2="d"/><feComposite in="SourceGraphic"/></filter></defs><g transform="translate(-299 -25)"><g transform="translate(302.441 28.46)"><g class="d" transform="matrix(1, 0, 0, 1, -3.44, -3.46)"><path class="a" d="M9.725,719.923l0,0a1.168,1.168,0,0,0-1.652-1.652l0,0-.005-.005L2.343,723.99v-3.4h0v0a1.168,1.168,0,1,0-2.336,0v0H0v6.23H.007a1.171,1.171,0,0,0,1.166,1.167V728H7.42a1.169,1.169,0,0,0,0-2.338v-.007H4.006l5.724-5.726Z" transform="translate(13.51 743.92) rotate(180)"/></g><g class="c" transform="matrix(1, 0, 0, 1, -3.44, -3.46)"><path class="a" d="M720.271,7.975l0,0A1.168,1.168,0,0,0,721.92,9.63l0,0,.005.005,5.724-5.724V7.3h0v0a1.169,1.169,0,1,0,2.338,0v0H730V1.074h-.007a1.171,1.171,0,0,0-1.166-1.167V-.1h-6.247a1.169,1.169,0,0,0,0,2.338v.007h3.414l-5.726,5.724Z" transform="translate(746.04 13.33) rotate(180)"/></g></g><rect class="b" width="30" height="30" transform="translate(299 25)"/></g></svg>