<svg xmlns="http://www.w3.org/2000/svg" viewBox="0 0 24 24"><defs><style>.a{fill:none;}</style></defs><g transform="translate(-176 -579)"><path d="M19.031,36.3l-3.679-3.679A2.105,2.105,0,0,0,13.864,32H2.105A2.105,2.105,0,0,0,0,34.105V49.543a2.105,2.105,0,0,0,2.105,2.105H17.543a2.105,2.105,0,0,0,2.105-2.105V37.784a2.105,2.105,0,0,0-.617-1.489Zm-7.1-2.19v3.509H6.315V34.105Zm5.35,15.437H2.368a.263.263,0,0,1-.263-.263V34.368a.263.263,0,0,1,.263-.263H4.21v4.561a1.053,1.053,0,0,0,1.053,1.053h7.719a1.053,1.053,0,0,0,1.053-1.053V34.275l3.431,3.431a.263.263,0,0,1,.077.186V49.279A.263.263,0,0,1,17.279,49.543ZM9.824,40.771a3.859,3.859,0,1,0,3.859,3.859A3.864,3.864,0,0,0,9.824,40.771Zm0,5.614a1.754,1.754,0,1,1,1.754-1.754A1.756,1.756,0,0,1,9.824,46.385Z" transform="translate(178.176 549.352)"/><rect class="a" width="24" height="24" transform="translate(176 579)"/></g></svg>