<svg xmlns="http://www.w3.org/2000/svg" viewBox="0 0 128 155"><title>Asset 2</title><g id="Layer_2" data-name="Layer 2"><g id="Layer_1-2" data-name="Layer 1"><path d="M124,16h-6a4,4,0,0,0-4-4H14a4,4,0,0,0-4,4H4a4,4,0,0,0,0,8h6V151a4,4,0,0,0,4,4H114a4,4,0,0,0,4-4V24h6a4,4,0,0,0,0-8ZM110,147H18V24h92Z"/><path d="M39.93,123.29c2.17,0,3.93-1.48,3.93-3.3V58.84c0-1.82-1.76-3.3-3.93-3.3S36,57,36,58.84V120C36,121.81,37.76,123.29,39.93,123.29Z"/><path d="M63.93,123.29c2.17,0,3.93-1.48,3.93-3.3V58.84c0-1.82-1.76-3.3-3.93-3.3S60,57,60,58.84V120C60,121.81,61.76,123.29,63.93,123.29Z"/><path d="M86.93,123.29c2.17,0,3.93-1.48,3.93-3.3V58.84c0-1.82-1.76-3.3-3.93-3.3S83,57,83,58.84V120C83,121.81,84.76,123.29,86.93,123.29Z"/><path d="M53,8H76a4,4,0,0,0,0-8H53a4,4,0,0,0,0,8Z"/></g></g></svg>