<svg xmlns="http://www.w3.org/2000/svg" viewBox="0 0 135 40"><defs><style>.a{fill:#fff;}.b{fill:none;}</style></defs><g transform="translate(-120 -57)"><g transform="translate(125.941 60)"><path class="a" d="M11.819,22.89c-1.261,0-2.476-.981-4.017-.841-2.569.28-2.943.327-4.578,1.168A3.445,3.445,0,0,1,.654,23.17,1.052,1.052,0,0,1,0,22.1a2.157,2.157,0,0,1,.234-1.074c1.542-5.279,9.95-16.63,12.1-19.62C4.158,1.355,3.6,3.784,1.822,3.784c-.654,0-.841-1.822-.841-2.663V1.074c0-.42,0-.981.42-1.028C1.588.047,3.036,0,4.952,0c3.41,0,9.483.047,10.277.047.654,0,1.261.187,1.261.561a1.8,1.8,0,0,1-.327,1.215S5.839,15.135,4.391,20.181c.514-.654,1.728-1.074,3.877-1.074,2.289-.047,1.915.888,5.092.888,1.869-.327,2.663-2.1,3.177-2.85.467-.654,1.215-.607.841.327C16.443,19.9,15.135,22.89,11.819,22.89Z"/><path class="a" d="M51.311,23.193c-.561,1.822-2.476,5.279-4.625,5.279a7.5,7.5,0,0,1-1.355-.234c-1.355,2.055-2.943,3.784-5.559,3.784-3.5,0-5.372-3.6-5.372-6.82,0-4.3,3.036-7.8,7.428-7.8,1.308,0,3.784,1.261,3.784,2.85,0,.14-.28.28-.374.28-.888,0-.888-1.448-3.036-1.448-3.13,0-4.111,3.036-4.111,5.652,0,1.4.747,5.139,2.756,5.139a3.656,3.656,0,0,0,3.27-2.009c-1.028-.654-2.429-2.149-2.429-3.5a2.687,2.687,0,0,1,2.8-2.943A2.285,2.285,0,0,1,46.779,23.8a7.427,7.427,0,0,1-.794,3.177,2.171,2.171,0,0,0,.981.234c2.2,0,2.99-4.905,3.877-4.905a.579.579,0,0,1,.607.561C51.4,23.006,51.311,23.146,51.311,23.193Zm-6.633-.42c-.607,0-.794.934-.794,1.355a3.137,3.137,0,0,0,.981,2.289,6.908,6.908,0,0,0,.561-2.2C45.425,23.8,45.238,22.772,44.677,22.772Z" transform="translate(-18.33 -9.272)"/><path class="a" d="M82.052,29.883c-1.822,0-4.578-1.074-4.578-2.943,0-2.2,2.476-2.429,3.317-2.429.561,0,1.028.234,1.028.561,0,.187-.14.374-.514.607-.514.28-2.055.514-2.055,1.121,0,.981,1.355,1.448,2.1,1.448.607,0,2.336-.047,2.336-1.869,0-1.495-1.168-5.185-2.943-6.587-.888,2.663-2.756,5.933-5,5.933a5.068,5.068,0,0,1-1.355-.234,5.809,5.809,0,0,1-5.325,3.083c-3.55,0-5.466-3.317-5.466-6.4a6.965,6.965,0,0,1,7.054-7.241,4.4,4.4,0,0,1,3.971,2.289c.187.327-.187.607-.327.607a.807.807,0,0,1-.607-.234,2.717,2.717,0,0,0-2.429-1.215c-2.382,0-3.5,1.915-3.5,5.7,0,4.017,1.4,5.325,2.149,5.325a4.03,4.03,0,0,0,3.317-2.2c-1.168-.794-2.429-2.336-2.429-3.55a2.684,2.684,0,0,1,2.8-2.943A2.319,2.319,0,0,1,75.886,21.1a8.17,8.17,0,0,1-.794,3.177,2.028,2.028,0,0,0,.981.234c1.588,0,3.317-4.111,3.55-5.559a2.121,2.121,0,0,1-1.074-1.915A2.755,2.755,0,0,1,81.585,14c.187,0,.514.187.514.42,0,.42-.28.42-.28.794,0,2.2,5.512,6.447,5.512,10.23C87.284,28.2,84.668,29.883,82.052,29.883ZM73.83,20.026c-.514,0-.794.747-.794,1.355a3.189,3.189,0,0,0,.981,2.289,7.24,7.24,0,0,0,.561-2.2C74.578,21.194,74.438,20.026,73.83,20.026Z" transform="translate(-33.89 -7.46)"/><path class="a" d="M118.852,9.474a93.48,93.48,0,0,0-1.121,10.044c0,1.869.981,2.523,1.495,2.523,1.542,0,2.2-3.924,2.756-5.372.14-.28.327-.42.514-.42.234,0,.514.14.514.841,0,2.2-2.149,7.521-4.765,7.521a3.714,3.714,0,0,1-3.223-3.69c0-1.168.234-2.99.327-4.111.234-2.2.654-3.971.888-7.1a22.274,22.274,0,0,1-2.709.234c-.28,0-.327-.327-.327-.794,0-.42.14-1.542.747-1.542.841,0,1.635.234,2.476.187-.047-1.261.187-2.336.187-3.6,0-1.215,1.355-1.495,2.2-1.495.42,0,.607.327.607.747v.047c0,1.635-.374,2.616-.42,4.2a26.062,26.062,0,0,0,3.971,0c.888-.093,1.355.888.561,1.074C121.7,9.24,120.394,9.147,118.852,9.474Z" transform="translate(-60.319 -1.439)"/><path class="a" d="M138.2,32.914c-1.4,0-1.682-1.261-1.869-1.728a4.417,4.417,0,0,1-3.13,1.869c-2.382,0-3.6-3.69-3.6-6.12,0-3.13,1.869-8.035,4.9-8.035,1.635,0,1.822.841,2.429,1.308.327-.794.327-1.261,1.168-1.261.514,0,1.542.327,1.542.981a6.24,6.24,0,0,1-.514,1.822,32.13,32.13,0,0,0-.841,7.568,1.051,1.051,0,0,0,.794.888c.934,0,2.289-3.831,2.569-5.185a.6.6,0,0,1,.561-.42c.234,0,.514.234.514.841C142.68,27.5,141,32.914,138.2,32.914Zm-3.457-12.706c-1.074,0-2.1,4.017-2.2,6.213-.047,1.915.42,4.765,1.4,4.765.934,0,2.1-1.728,2.149-2.382.047-1.215.234-3.036.234-4.251C136.327,23.525,136.14,20.208,134.739,20.208Z" transform="translate(-69.058 -10.071)"/><path class="a" d="M162.205,38.21a.585.585,0,0,1-.607-.42c-1.355-3.036-2.569-4.158-4.344-4.858.28,4.3-.607,8.315-4.251,8.315-2.429,0-9.2-1.168-9.2-5.139,0-3.924,6.306-4.438,11.071-5.232a8.194,8.194,0,0,0,.14-1.822,4.182,4.182,0,0,1-3.41,1.728c-2.476,0-2.99-3.457-2.99-6.166,0-2.663,1.635-8.128,4.9-8.128a3.283,3.283,0,0,1,2.289,1.168s.234-1.261.327-2.009a.744.744,0,0,1,.654-.607l1.261-.14h.047c.374,0,.514.14.514.374v.047c-.047,5.466-.934,9.763-1.355,15.7,2.336.42,5.466,4.438,5.466,6.774C162.813,38.07,162.439,38.21,162.205,38.21Zm-7.708-5.7c-2.382-.047-8.6,1.869-8.6,3.644,0,2.2,5.325,3.5,6.68,3.5,2.055,0,1.962-4.858,1.962-6.587A1.925,1.925,0,0,0,154.5,32.511Zm-.327-14.528c-1.915,0-2.476,6.213-2.476,8.549,0,1.308.561,2.382,1.261,2.382s1.915-1.308,2.1-2.429c.14-.794.374-4.3.374-5.139C155.432,20.366,155.385,17.983,154.171,17.983Z" transform="translate(-76.625 -7.94)"/><path class="a" d="M194.886,32.275c-1.4,0-1.682-1.261-1.869-1.728a4.417,4.417,0,0,1-3.13,1.869c-1.308,0-2.242-1.074-2.85-2.476a4.6,4.6,0,0,1-3.971,2.663c-2.1,0-2.569-2.2-2.569-4.017s.607-4.952.607-6.727c0-.654-.093-1.261-.934-1.261-.42,0-.561.42-.607.561-.467,2.382-.794,5.512-2.289,7.8-.42.7-1.074.607-1.074-.327a.508.508,0,0,1,.047-.234,72.232,72.232,0,0,0,1.915-7.241c.327-1.635-1.028-1.4-1.028-2.663a.715.715,0,0,1,.794-.794c.794,0,1.775.888,3.223.888.888,0,1.448-.467,2.289-.467.747,0,1.542,1.074,1.542,1.775a4.362,4.362,0,0,1-.654,1.682,24.038,24.038,0,0,0-1.215,6.166c0,1.028.28,3.5,1.168,3.5,1.028,0,2.009-2.149,2.009-3.924,0-.28.047-.561.047-1.074,0-3.13,1.869-8.035,4.9-8.035,1.635,0,1.822.841,2.429,1.308.327-.794.327-1.261,1.168-1.261.514,0,1.542.327,1.542.981a6.24,6.24,0,0,1-.514,1.822,32.13,32.13,0,0,0-.841,7.568,1.051,1.051,0,0,0,.794.888c.934,0,2.289-3.831,2.569-5.185a.6.6,0,0,1,.561-.42c.234,0,.514.234.514.841C199.417,26.856,197.735,32.275,194.886,32.275Zm-3.457-12.706c-1.074,0-2.1,4.017-2.2,6.213-.047,1.915.42,4.765,1.4,4.765.934,0,2.1-1.728,2.149-2.382.047-1.215.234-3.036.234-4.251C193.017,22.885,192.83,19.569,191.429,19.569Z" transform="translate(-93.889 -9.432)"/><path class="a" d="M236.685,32.57c-2.1,0-2.429-2.663-2.336-4.858.047-1.635.327-3.41.514-5.045A25.61,25.61,0,0,0,235.1,20c0-.327-.047-.794-.467-.794-.561,0-1.355.888-1.588,1.355-.981,1.962-1.355,7.1-1.355,9.343a3.979,3.979,0,0,1-1.869.7.75.75,0,0,1-.794-.841c0-3.5,1.355-7.194,1.355-10.324,0-.42-.047-1.355-.607-1.355-1.121,0-3.55,3.55-3.784,4.578a4.533,4.533,0,0,0-.047.794c0,1.822.047,3.6.047,5.419,0,.467,0,.934-.047,1.4a2.872,2.872,0,0,1-1.682.514c-.42,0-.934-.14-.934-.607,0-2.85-.234-5.746-.234-8.549,0-.7-.14-4.625.794-4.625a8.821,8.821,0,0,1,1.915.14l.327.42c-.047.981-.047,1.915-.14,2.9.7-1.4,2.663-4.671,4.438-4.671,1.4,0,1.962,2.149,2.2,3.177a5.346,5.346,0,0,1,3.784-2.149c1.542,0,1.775,1.542,1.775,2.8,0,2.85-.981,5.7-.981,8.549a1.878,1.878,0,0,0,.561,1.542c1.355-.047,2.2-5,2.709-6.026.093-.234.234-.42.467-.42.42,0,.607.467.561.794C241.263,25.984,239.3,32.57,236.685,32.57Z" transform="translate(-118.872 -8.419)"/></g><rect class="b" width="135" height="40" transform="translate(120 57)"/></g></svg>